<svg width="69" height="74" viewBox="0 0 69 74" fill="none" xmlns="http://www.w3.org/2000/svg">
<path d="M21.6228 14.1794L22.1885 16.2849L36.329 18.6954L35.7634 16.5898L21.6228 14.1794Z" fill="#4F4CBF"/>
<path d="M23.0038 19.32L23.5695 21.4256L37.7101 23.836L37.1444 21.7305L23.0038 19.32Z" fill="#4F4CBF"/>
<path d="M24.3849 24.4606L24.9506 26.5662L39.0911 28.9767L38.5254 26.8711L24.3849 24.4606Z" fill="#4F4CBF"/>
<path d="M25.7659 29.6012L26.3316 31.7068L40.4721 34.1173L39.9065 32.0117L25.7659 29.6012Z" fill="#4F4CBF"/>
<path d="M27.147 34.7418L27.7126 36.8474L41.8532 39.2579L41.2875 37.1523L27.147 34.7418Z" fill="#4F4CBF"/>
<path d="M28.528 39.8824L29.0937 41.988L43.2342 44.3985L42.6685 42.2929L28.528 39.8824Z" fill="#4F4CBF"/>
<path d="M29.909 45.023L30.4747 47.1286L44.6153 49.5391L44.0496 47.4335L29.909 45.023Z" fill="#4F4CBF"/>
<path d="M31.2901 50.1636L31.8557 52.2692L45.9963 54.6797L45.4306 52.5741L31.2901 50.1636Z" fill="#4F4CBF"/>
<path d="M32.6711 55.3042L33.2368 57.4098L47.3773 59.8203L46.8117 57.7147L32.6711 55.3042Z" fill="#4F4CBF"/>
<path d="M-0.00024184 3.36441L0.565431 5.47001L14.706 7.88049L14.1403 5.7749L-0.00024184 3.36441Z" fill="#4F4CBF"/>
<path d="M1.3808 8.50502L1.94647 10.6106L16.087 13.0211L15.5213 10.9155L1.3808 8.50502Z" fill="#4F4CBF"/>
<path d="M2.76183 13.6456L3.32751 15.7512L17.4681 18.1617L16.9024 16.0561L2.76183 13.6456Z" fill="#4F4CBF"/>
<path d="M4.14287 18.7862L4.70854 20.8918L18.8491 23.3023L18.2834 21.1967L4.14287 18.7862Z" fill="#4F4CBF"/>
<path d="M5.52391 23.9269L6.08958 26.0324L20.2301 28.4429L19.6645 26.3373L5.52391 23.9269Z" fill="#4F4CBF"/>
<path d="M6.90495 29.0675L7.47062 31.1731L21.6112 33.5835L21.0455 31.478L6.90495 29.0675Z" fill="#4F4CBF"/>
<path d="M8.28599 34.2081L8.85166 36.3137L22.9922 38.7242L22.4265 36.6186L8.28599 34.2081Z" fill="#4F4CBF"/>
<path d="M9.66702 39.3487L10.2327 41.4543L24.3732 43.8648L23.8076 41.7592L9.66702 39.3487Z" fill="#4F4CBF"/>
<path d="M11.0481 44.4893L11.6137 46.5949L25.7543 49.0054L25.1886 46.8998L11.0481 44.4893Z" fill="#4F4CBF"/>
<path d="M43.2449 24.9948L43.8105 27.1004L57.9511 29.5109L57.3854 27.4053L43.2449 24.9948Z" fill="#4F4CBF"/>
<path d="M44.6259 30.1354L45.1916 32.241L59.3321 34.6515L58.7665 32.5459L44.6259 30.1354Z" fill="#4F4CBF"/>
<path d="M46.007 35.276L46.5726 37.3816L60.7132 39.7921L60.1475 37.6865L46.007 35.276Z" fill="#4F4CBF"/>
<path d="M47.388 40.4166L47.9537 42.5222L62.0942 44.9327L61.5285 42.8271L47.388 40.4166Z" fill="#4F4CBF"/>
<path d="M48.769 45.5572L49.3347 47.6628L63.4753 50.0733L62.9096 47.9677L48.769 45.5572Z" fill="#4F4CBF"/>
<path d="M50.1501 50.6978L50.7157 52.8034L64.8563 55.2139L64.2906 53.1083L50.1501 50.6978Z" fill="#4F4CBF"/>
<path d="M51.5311 55.8384L52.0968 57.944L66.2373 60.3545L65.6717 58.2489L51.5311 55.8384Z" fill="#4F4CBF"/>
<path d="M52.9121 60.9791L53.4778 63.0846L67.6184 65.4951L67.0527 63.3895L52.9121 60.9791Z" fill="#4F4CBF"/>
<path d="M54.2932 66.1197L54.8589 68.2253L68.9994 70.6357L68.4337 68.5302L54.2932 66.1197Z" fill="#4F4CBF"/>
</svg>
