<svg width="777" height="324" viewBox="0 0 777 324" fill="none" xmlns="http://www.w3.org/2000/svg">
<path d="M7.61719 235V63.125H41.9922V205.703H77.3438V235H7.61719ZM87.1094 235V63.125H155.859V96.3281H122.07V129.824H154.492V162.148H122.07V201.504H158.105V235H87.1094ZM184.277 235V96.1328H163.867V63.125H239.062V96.1328H218.652V235H184.277ZM251.855 113.516L258.301 90.4688H245.898V61.3672H282.422V89.5898L272.461 113.516H251.855ZM335.938 236.562C320.247 236.562 308.919 232.656 301.953 224.844C295.052 217.031 291.602 204.596 291.602 187.539V170.742H325.586V192.227C325.586 196.198 326.172 199.323 327.344 201.602C328.581 203.815 330.697 204.922 333.691 204.922C336.816 204.922 338.965 204.01 340.137 202.188C341.374 200.365 341.992 197.37 341.992 193.203C341.992 187.93 341.471 183.535 340.43 180.02C339.388 176.439 337.565 173.053 334.961 169.863C332.422 166.608 328.874 162.832 324.316 158.535L308.887 143.887C297.363 133.014 291.602 120.579 291.602 106.582C291.602 91.9336 294.987 80.7682 301.758 73.0859C308.594 65.4036 318.457 61.5625 331.348 61.5625C347.103 61.5625 358.268 65.7617 364.844 74.1602C371.484 82.5586 374.805 95.319 374.805 112.441H339.844V100.625C339.844 98.2812 339.16 96.4583 337.793 95.1562C336.491 93.8542 334.701 93.2031 332.422 93.2031C329.688 93.2031 327.669 93.9844 326.367 95.5469C325.13 97.0443 324.512 98.9974 324.512 101.406C324.512 103.815 325.163 106.419 326.465 109.219C327.767 112.018 330.339 115.241 334.18 118.887L354.004 137.93C357.975 141.706 361.621 145.71 364.941 149.941C368.262 154.108 370.931 158.991 372.949 164.59C374.967 170.124 375.977 176.895 375.977 184.902C375.977 201.048 372.982 213.711 366.992 222.891C361.068 232.005 350.716 236.562 335.938 236.562ZM449.121 235V96.1328H428.711V63.125H503.906V96.1328H483.496V235H449.121ZM506.25 235L522.852 63.125H581.152L597.461 235H564.941L562.5 207.266H541.797L539.648 235H506.25ZM544.238 179.824H559.863L552.344 92.4219H550.781L544.238 179.824ZM608.008 235V63.125H642.383V205.703H677.734V235H608.008ZM687.5 235V63.125H721.484V131.973L737.5 63.125H772.07L752.832 141.836L776.074 235H740.43L721.68 151.797V235H687.5Z" fill="white"/>
<g clip-path="url(#clip0_41_17)">
<path d="M383.384 208.113L394.46 197.556L394.74 212.763L394.841 218.271L400.029 216.256L414.349 210.692L408.72 224.847L406.681 229.974L412.254 230.075L427.637 230.351L416.957 241.299L413.088 245.265L418.198 247.466L432.304 253.54L418.198 259.615L413.088 261.816L416.957 265.782L427.637 276.73L412.254 277.006L406.681 277.106L408.72 282.234L414.349 296.389L400.029 290.825L394.841 288.809L394.74 294.319L394.46 309.525L383.384 298.968L379.372 295.143L377.145 300.194L371 314.138L364.855 300.194L362.628 295.143L358.616 298.968L347.54 309.525L347.26 294.319L347.159 288.809L341.971 290.825L327.652 296.389L333.28 282.234L335.319 277.106L329.746 277.006L314.362 276.73L325.043 265.782L328.912 261.816L323.802 259.615L309.696 253.54L323.802 247.466L328.912 245.265L325.043 241.299L314.362 230.351L329.746 230.075L335.319 229.974L333.28 224.847L327.652 210.692L341.971 216.256L347.159 218.271L347.26 212.763L347.54 197.556L358.616 208.113L362.628 211.938L364.855 206.887L371 192.944L377.145 206.887L379.372 211.938L383.384 208.113Z" fill="#4F4CBF" stroke="#0F1117" stroke-width="12"/>
<path d="M380.196 211.273L394.165 197.958L394.518 217.136L394.543 218.514L395.84 218.01L413.899 210.993L406.801 228.844L406.291 230.126L407.684 230.151L427.086 230.5L413.616 244.307L412.649 245.299L413.927 245.849L431.717 253.51L413.927 261.171L412.649 261.721L413.616 262.713L427.086 276.521L407.684 276.869L406.291 276.895L406.801 278.176L413.899 296.028L395.84 289.011L394.543 288.507L394.518 289.884L394.165 309.062L380.196 295.748L379.193 294.792L378.636 296.055L370.886 313.639L363.135 296.055L362.579 294.792L361.576 295.748L347.607 309.062L347.254 289.884L347.229 288.507L345.932 289.011L327.872 296.028L334.971 278.176L335.481 276.895L334.088 276.869L314.686 276.521L328.155 262.713L329.123 261.721L327.845 261.171L310.055 253.51L327.845 245.849L329.123 245.299L328.155 244.307L314.686 230.5L334.088 230.151L335.481 230.126L334.971 228.844L327.872 210.993L345.932 218.01L347.229 218.514L347.254 217.136L347.607 197.958L361.576 211.273L362.579 212.229L363.135 210.966L370.886 193.381L378.636 210.966L379.193 212.229L380.196 211.273Z" fill="#4F4CBF" stroke="#E5DFD8" stroke-width="3"/>
<path fill-rule="evenodd" clip-rule="evenodd" d="M371.002 245.837L371.003 245.837V245.836L377.886 241.913V234.041L371.002 237.965L364.117 234.041V241.913L371.001 245.836V245.837L371.002 245.837Z" fill="#0F1117"/>
<path fill-rule="evenodd" clip-rule="evenodd" d="M371.003 261.561L377.886 265.484V273.333L371.002 269.409L364.117 273.333V265.484L371.001 261.561V261.559L371.002 261.56L371.003 261.559V261.561Z" fill="#0F1117"/>
<path fill-rule="evenodd" clip-rule="evenodd" d="M357.23 245.839L357.229 245.838V237.966L364.114 241.913V249.762L364.116 249.763L357.231 253.688L350.345 249.763L357.23 245.839Z" fill="#0F1117"/>
<path fill-rule="evenodd" clip-rule="evenodd" d="M384.769 261.559L377.884 257.611L384.769 253.687L391.654 257.611L384.769 261.559ZM384.769 261.559L377.884 257.611V265.484L384.769 269.409V261.559Z" fill="#0F1117"/>
<path fill-rule="evenodd" clip-rule="evenodd" d="M364.114 257.613L364.116 257.611L357.231 253.687L350.345 257.611L357.23 261.559L357.229 261.559V269.409L364.114 265.484V257.613Z" fill="#0F1117"/>
<path fill-rule="evenodd" clip-rule="evenodd" d="M384.769 245.838L377.884 249.763V241.913L384.769 237.966V245.838ZM384.769 245.838L377.884 249.763L384.769 253.688L391.654 249.763L384.769 245.838Z" fill="#0F1117"/>
</g>
<defs>
<clipPath id="clip0_41_17">
<rect width="142" height="141" fill="white" transform="translate(300 183)"/>
</clipPath>
</defs>
</svg>
