<svg width="220" height="221" viewBox="0 0 220 221" fill="none" xmlns="http://www.w3.org/2000/svg">
<path d="M129.187 39.3621L146.347 22.8152L146.78 46.6494L146.937 55.2835L154.974 52.1244L177.16 43.4038L168.439 65.5896L165.28 73.6266L173.914 73.7836L197.748 74.2169L181.201 91.3767L175.207 97.593L183.124 101.042L204.978 110.563L183.124 120.085L175.207 123.534L181.201 129.75L197.748 146.91L173.914 147.343L165.28 147.5L168.439 155.537L177.16 177.723L154.974 169.003L146.937 165.843L146.78 174.478L146.347 198.312L129.187 181.765L122.971 175.771L119.521 183.687L110 205.542L100.479 183.687L97.0295 175.771L90.8132 181.765L73.6535 198.312L73.2201 174.478L73.0631 165.843L65.0261 169.003L42.8404 177.723L51.5609 155.537L54.72 147.5L46.0859 147.343L22.2517 146.91L38.7986 129.75L44.7928 123.534L36.876 120.085L15.0219 110.563L36.876 101.042L44.7928 97.593L38.7986 91.3767L22.2517 74.2169L46.0859 73.7836L54.72 73.6266L51.5609 65.5896L42.8404 43.4038L65.0261 52.1244L73.0631 55.2835L73.2201 46.6494L73.6535 22.8152L90.8132 39.3621L97.0295 45.3563L100.479 37.4395L110 15.5854L119.521 37.4395L122.971 45.3563L129.187 39.3621Z" fill="#4F4CBF" stroke="#0F1117" stroke-width="12"/>
<path d="M124.248 44.314L145.889 23.4455L146.436 53.5046L146.475 55.6631L148.484 54.8733L176.464 43.8752L165.466 71.8553L164.676 73.8645L166.835 73.9037L196.894 74.4503L176.025 96.0917L174.527 97.6458L176.506 98.5081L204.068 110.516L176.506 122.524L174.527 123.386L176.025 124.941L196.894 146.582L166.835 147.128L164.676 147.168L165.466 149.177L176.464 177.157L148.484 166.159L146.475 165.369L146.436 167.528L145.889 197.587L124.248 176.718L122.694 175.22L121.831 177.199L109.823 204.761L97.8152 177.199L96.9529 175.22L95.3988 176.718L73.7574 197.587L73.2109 167.528L73.1716 165.369L71.1624 166.159L43.1823 177.157L54.1805 149.177L54.9702 147.168L52.8117 147.128L22.7527 146.582L43.6211 124.941L45.1197 123.386L43.1405 122.524L15.5787 110.516L43.1405 98.5081L45.1197 97.6458L43.6211 96.0917L22.7527 74.4503L52.8117 73.9037L54.9702 73.8645L54.1805 71.8553L43.1823 43.8752L71.1624 54.8733L73.1716 55.6631L73.2109 53.5046L73.7574 23.4455L95.3988 44.314L96.9529 45.8126L97.8152 43.8334L109.823 16.2716L121.831 43.8334L122.694 45.8126L124.248 44.314Z" fill="#4F4CBF" stroke="#E5DFD8" stroke-width="3"/>
<path fill-rule="evenodd" clip-rule="evenodd" d="M110.003 98.4889L110.004 98.4898V98.488L120.668 92.3384V80L110.003 86.1506L99.3369 80V92.3384L110.001 98.488V98.4898L110.003 98.4889Z" fill="#0F1117"/>
<path fill-rule="evenodd" clip-rule="evenodd" d="M110.004 123.134L120.668 129.283V141.586L110.003 135.435L99.3369 141.586V129.283L110.001 123.134V123.132L110.003 123.133L110.004 123.132V123.134Z" fill="#0F1117"/>
<path fill-rule="evenodd" clip-rule="evenodd" d="M88.6666 98.4916L88.6641 98.4901V86.1519L99.3312 92.3388V104.641L99.3343 104.643L88.6672 110.794L78 104.643L88.6666 98.4916Z" fill="#0F1117"/>
<path fill-rule="evenodd" clip-rule="evenodd" d="M131.332 123.131L120.665 116.944L131.332 110.793L141.999 116.944L131.332 123.131ZM131.332 123.132L120.665 116.945V129.283L131.332 135.435V123.132Z" fill="#0F1117"/>
<path fill-rule="evenodd" clip-rule="evenodd" d="M99.3312 116.946L99.3343 116.944L88.6672 110.793L78 116.944L88.6661 123.131L88.6641 123.132V135.435L99.3312 129.283V116.946Z" fill="#0F1117"/>
<path fill-rule="evenodd" clip-rule="evenodd" d="M131.332 98.4901L120.665 104.642V92.3388L131.332 86.1519V98.4901ZM131.332 98.4912L120.665 104.643L131.332 110.794L141.999 104.643L131.332 98.4912Z" fill="#0F1117"/>
</svg>
